<?xml version="1.0" encoding="UTF-8"?>
<svg id="_图层_1" data-name="图层 1" xmlns="http://www.w3.org/2000/svg" viewBox="0 0 577.24 489.95">
  <defs>
    <style>
      .cls-1 {
        fill: #446fa9;
      }

      .cls-2 {
        fill: #2f5a9b;
      }

      .cls-3 {
        fill: #3366a4;
      }

      .cls-4 {
        fill: #3768a5;
      }

      .cls-5 {
        fill: #668dbd;
      }

      .cls-6 {
        fill: #fff;
      }

      .cls-7 {
        fill: #335d9d;
      }

      .cls-8 {
        fill: #2e599a;
      }

      .cls-9 {
        fill: #3065a5;
      }

      .cls-10 {
        fill: #4670ab;
      }

      .cls-11 {
        fill: #3166a5;
      }

      .cls-12 {
        fill: #3368a6;
      }

      .cls-13 {
        fill: #557bb1;
      }

      .cls-14 {
        fill: #899ac4;
      }

      .cls-15 {
        fill: #3969a6;
      }

      .cls-16 {
        fill: #3567a5;
      }

      .cls-17 {
        fill: #4c6ba7;
      }

      .cls-18 {
        fill: #4b6ea8;
      }

      .cls-19 {
        fill: #345e9d;
      }

      .cls-20 {
        fill: #2b5699;
      }

      .cls-21 {
        fill: #8296c2;
      }

      .cls-22 {
        fill: #fefeff;
      }

      .cls-23 {
        fill: #feffff;
      }

      .cls-24 {
        fill: #4164a3;
      }

      .cls-25 {
        fill: #3267a7;
      }

      .cls-26 {
        fill: #4c73ac;
      }

      .cls-27 {
        fill: #3469a7;
      }

      .cls-28 {
        fill: #3667a5;
      }

      .cls-29 {
        fill: #2e589b;
      }

      .cls-30 {
        fill: #3466a4;
      }

      .cls-31 {
        fill: #3268a7;
      }

      .cls-32 {
        fill: #3164a3;
      }

      .cls-33 {
        fill: #4667a4;
      }

      .cls-34 {
        fill: #3366a3;
      }

      .cls-35 {
        fill: #356ca9;
      }

      .cls-36 {
        fill: #376ca9;
      }

      .cls-37 {
        fill: #fafbfd;
      }

      .cls-38 {
        fill: #a4bbd8;
      }

      .cls-39 {
        fill: #30599b;
      }

      .cls-40 {
        fill: #3467a4;
      }

      .cls-41 {
        fill: #376daa;
      }

      .cls-42 {
        fill: #335e9d;
      }

      .cls-43 {
        fill: #3668a5;
      }

      .cls-44 {
        fill: #3365a3;
      }

      .cls-45 {
        fill: #fbfcfe;
      }
    </style>
  </defs>
  <g>
    <path class="cls-6" d="M561.36,87.78c0,132.82-.01,265.63,.08,398.45,0,3.03-.69,3.72-3.77,3.72-184.49-.08-368.98-.08-553.47,0-3.07,0-3.77-.68-3.77-3.72,.09-134.97,.08-269.95,.08-404.92,3.07-4.22,6.54-8.07,10.66-11.33H544.96c6.7,4.83,11.93,10.97,16.4,17.8Z"/>
    <path class="cls-36" d="M561.36,87.78c-5.47-5.93-10.93-11.87-16.4-17.8,3.55,0,7.11,0,10.66,0,2.51,1.3,4.42,3.19,5.74,5.66v12.14Z"/>
    <path class="cls-41" d="M11.17,69.98c-3.03,4.25-6.56,8.05-10.66,11.33v-.81c0-3.51-1.39-8.38,.39-10.13,1.78-1.75,6.72-.38,10.27-.38Z"/>
    <path class="cls-37" d="M561.36,75.65c-2.47-1.34-3.95-3.66-5.74-5.66q5.74,0,5.74,5.66Z"/>
    <path class="cls-35" d="M552.4,278.74c-10.64,15.59-21.78,30.83-32.98,46.03-.52,.17-1.05,.2-1.59,.1-12.56-.1-25.12,.23-37.67,.24-128.08,.09-256.16,.05-384.24,.08-2.15,0-4.38-.48-6.42,.59-.25,.43-.45,.87-.55,1.36-.38,3.37-.09,6.74-.17,10.11-.08,2.95,1.39,4.15,4.24,4.07,1.23-.03,2.46,.02,3.69,.02,123.84,0,247.69,0,371.53,0,2.04,0,4.1,.17,6.09-.41,2.42-1.68,1.37-4.18,1.4-6.32,.12-9.21,.06-9.23,9.45-9.26,1.39,0,3.07-.69,3.96,1.13,.04,4.31,.23,8.63,.08,12.93-.09,2.58,.61,3.6,3.4,3.46,4.5-.22,9.02,.04,13.52-.1,2.31-.07,3.1,.7,3.08,3-.09,12.4-.1,24.8,0,37.21,.02,2.46-1.06,2.92-3.2,2.87-4.23-.11-8.48,.16-12.7-.09-3.24-.2-4.14,.85-4.12,4.06,.13,25.88,.07,51.77,.07,77.65,0,4.18-.07,8.36,.03,12.54,.05,1.89-.56,2.78-2.56,2.58-.81-.08-1.64-.01-2.46-.01-135.12,0-270.24,0-405.37-.04-1.49,0-3.24,.8-4.53-.73,1.28-.73,2.68-.37,4.01-.37,134.72-.02,269.44-.02,404.16,0,1.25,0,2.56-.34,3.07-.06-.73,.04-2.19,.02-3.65,.02-133.9,0-267.8,0-401.7-.01-6.39,0-5.43,.84-5.57-5.66-.04-1.73,.32-3.5-.3-5.2,.07-6.87,.19-13.73,.2-20.6,.03-20.08-.05-40.15,.07-60.23,.02-2.92-.64-4.18-3.83-3.92-3.39,.27-6.84-.13-10.23,.12-2.99,.21-3.62-.97-3.59-3.7,.13-11.99,.13-23.98,0-35.97-.03-2.65,.72-3.59,3.44-3.44,3.54,.2,7.1-.07,10.65,.09,2.54,.12,3.74-.51,3.57-3.31-.22-3.62-.22-7.28,0-10.91,.17-2.8-1.08-3.35-3.6-3.31-7.78,.12-15.57,.06-23.35,.03-1.34,0-2.74,.3-4.02-.41,3.59-1.06,7.26-.38,10.88-.46,6.39-.13,12.78-.04,17.86-.04-9-.29-19.33,.38-29.64-.31-9.78-15.23-19.36-30.58-28.51-46.18,1.4-.82,2.94-.41,4.41-.41,176.14-.02,352.28-.02,528.42,.02,1.78,0,3.9-.87,5.26,1.19Z"/>
    <path class="cls-42" d="M516.06,116.78c.24-.13,.46-.33,.71-.39q9.57-2.25,9.57,7.39c0,20.08-.05,40.15,.06,60.23,.02,3-.46,4.72-4.01,5.05-2.5,.23-5.82-.28-6.89,3.46-.13,.44-2.52,.33-3.87,.33-78.8,.01-157.59,.01-236.39,.01-14.75,0-29.5,.02-44.25-.03-1.42,0-3,.6-4.29-.59,.94-.82,2.09-.48,3.14-.48,94.13-.02,188.26-.01,282.39-.02,.5,0,.98,.04,.7-.02-93.32,0-187.41,0-281.49,.03-1.58,0-3.27-.54-4.76,.49-4.81-8.31-6.79-17.51-7.83-26.82-1.72-15.31,.11-30.29,6.12-44.63,.46-1.1,.68-2.33,1.71-3.13,1.44-.66,2.96-.33,4.44-.33,93.56-.02,187.11-.01,280.67-.06,1.4,0,2.97,.71,4.26-.51Z"/>
    <path class="cls-42" d="M240.79,272.94c-1.74-.34-1.73-1.97-2.18-3.11-9.14-22.97-9.13-45.95-.01-68.95,1.16-2.93,2.73-3.96,6.02-3.95,93.02,.1,186.04,.07,279.06,.13,4.56,0,8.96-.63,13.36-1.61,2.05-.46,2.95-.01,2.94,2.32-.07,22.78-.06,45.55,0,68.33,0,2.09-.81,2.8-2.79,3.06-2.56,.34-5.08,1-7.62,1.52-.75,1.1-1.38,2.26-3.11,1.99-1.07-.16-2.18-.03-3.27-.03-92.5,0-185.01,0-277.51,.02-1.62,0-3.28-.3-4.87,.29Z"/>
    <path class="cls-7" d="M183.46,271.5c-1.17,1.04-2.61,.59-3.92,.59-45.9,.02-91.8,.02-137.7,.03-3.35,0-6.49-.7-9.36-2.42-5.16-3.07-7.31-7.96-6.13-13.79,.54-2.67,1.57-5.16,2.92-7.51,20.9-36.22,37.45-74.54,55.56-112.11,.65-1.36,.98-2.74,.97-4.28-.04-9.97-.1-19.95,.04-29.92,.03-2.28-.7-3.32-2.85-4.08-3.5-1.24-6.61-3.25-8.94-6.2-3.44-4.36-2.66-8.78,2.11-11.65,2.83-1.71,5.91-2.82,9.27-2.91,16.66-.44,33.32-.46,49.98,.02,3.49,.1,6.71,1.28,9.59,3.17,4.17,2.73,4.92,6.74,2.05,10.82-2.34,3.33-5.7,5.44-9.46,6.81-2.01,.74-2.66,1.77-2.64,3.84,.1,10.11,.06,20.22,.02,30.33,0,1.53,.33,2.91,.98,4.28,15.78,33.3,31.16,66.79,48.31,99.45,2.76,5.26,6.17,10.21,8.64,15.58,4.41,9.6,.59,17.28-9.45,19.96-1.36-.96-2.92-.47-4.37-.47-44.52-.03-89.04-.02-133.56-.03-1.43,0-2.86,.19-3.45,.03,44.98,0,90.78,0,136.58,.02,1.6,0,3.27-.47,4.8,.44Z"/>
    <path class="cls-25" d="M552.4,278.74c-1.48-.89-3.11-.84-4.76-.84-177.23,0-354.46,0-531.69,.01-.55,0-1.09,.02-1.64,.03-.44-.57-.31-1.03,.4-1.08,1.36-.1,2.73-.1,4.09-.1,177.17,0,354.33,0,531.5,.07,.74,0,4.23-1.7,2.1,1.89Z"/>
    <path class="cls-5" d="M518.61,324.66c.27,.03,.54,.06,.81,.11-1.07,1.26-2.52,.71-3.81,.72-7.45,.05-14.91,0-22.36,.05-1.4,.01-3.03-.61-4.12,.91-1.04-.7-2.11-.15-3.17-.05-2.82,.25-6.5-1.23-8.26,.69-2.01,2.19-.39,5.93-.75,8.97-.26,2.2,.84,4.57-.78,6.61-2.21-2.72-1.32-5.95-1.38-8.97-.14-6.69-.08-6.74-6.89-6.74-113.92,0-227.83,0-341.75,0-10.93,0-21.85,.02-32.78-.02-2.02,0-4.14,.27-5.88-1.19-.02-.32-.04-.64-.06-.96,1.44-.66,2.97-.33,4.45-.33,140.75-.02,281.5-.02,422.25,0,1.49,0,3.01-.21,4.48,.21Z"/>
    <path class="cls-27" d="M74.42,470.49c1.47,2.38,.59,4.99,.65,7.48,.05,2.28,.85,3.22,3.14,3.02,1.08-.1,2.18-.01,3.28-.01,133.78,0,267.55,0,401.33,0h4.7l-.02,.8c-137.7,0-275.4,0-413.11,0-.3-3.76-.35-7.53,.03-11.29Z"/>
    <path class="cls-20" d="M516.06,116.78c-.45,2-2.06,.86-2.99,.87-13.93,.1-27.86,.07-41.79,.07-81.53-.01-163.06-.03-244.59-.04,.66-1.57,2.08-1.01,3.2-1.01,95.12-.02,190.24-.01,285.36,0,.27,0,.54,.08,.81,.12Z"/>
    <path class="cls-8" d="M240.79,272.94c1.56-1.28,3.42-.67,5.12-.67,92.54-.03,185.08-.03,277.62-.02,2.17,0,4.38,.29,6.03-1.58,.05,1.47-.11,2.73-2.14,2.5-.81-.09-1.64-.01-2.46-.01-93.23,0-186.46,0-279.69,0-1.49,0-2.99-.14-4.48-.21Z"/>
    <path class="cls-9" d="M42.83,324.13h30.61c0,.27,0,.54,0,.81-9.91,0-19.82,0-29.72,0-.3-.27-.59-.54-.89-.81Z"/>
    <path class="cls-6" d="M476.07,469.64c-1.5,.06-3,.16-4.49,.16-126.34,0-252.69-.01-379.03,.1-4.07,0-5.22-.86-5.18-5.04,.26-26.14,.19-52.28,.24-78.43,1.77-1.54,3.92-.89,5.9-.9,76.12-.04,152.24-.03,228.36-.03,49.61,0,99.21,0,148.82,0q5.8,0,5.8,5.73c0,24.68,0,49.35-.02,74.03,0,1.45,.39,2.97-.39,4.36Z"/>
    <path class="cls-6" d="M529.13,289.55c-4.32,6.05-8.65,11.4-12.15,17.24-2.87,4.79-6.42,6.02-11.92,6.01-149.91-.17-299.83-.15-449.74-.04-3.66,0-5.65-1.09-7.39-4.17-3.57-6.32-7.56-12.41-11.65-19.05h492.86Z"/>
    <path class="cls-6" d="M282.99,373.31c-69.14,0-138.29,0-207.43-.01-6.3,0-5.5,.86-5.56-5.67-.03-3.1,.09-6.21-.04-9.3-.08-2.02,.51-3.07,2.74-2.81,.94,.11,1.91,.02,2.87,.02,138.56,0,277.12,0,415.69,.01,6.19,0,5.38-.83,5.3,5.41-.05,3.99,1.78,9.12-.8,11.66-2.39,2.35-7.54,.66-11.47,.67-67.09,.04-134.19,.03-201.28,.03Z"/>
    <path class="cls-6" d="M87.5,325.75c1.63-.08,3.27-.22,4.9-.22,126.15-.01,252.3-.01,378.45,0,6.14,0,5.37-.63,5.41,5.43,.02,3.9-.05,7.81-.08,11.72-1.5,.04-3,.12-4.5,.12-126.36,0-252.73-.01-379.09,.09-4.01,0-5.65-.75-5.19-5.02,.43-4,.1-8.08,.11-12.12Z"/>
    <path class="cls-31" d="M528.3,288.31H36.86c0-.13,0-.27,0-.4h491.6c-.05,.13-.11,.27-.16,.4Z"/>
    <path class="cls-38" d="M476.07,469.64c0-26.42-.02-52.85,.05-79.27,0-2.64-.16-4.13-3.62-4.12-127.75,.09-255.51,.08-383.26,.09-.55,0-1.09,.07-1.64,.1-.05-.27-.11-.54-.16-.81,1.22-.94,2.64-.49,3.96-.49,126.88-.02,253.75-.02,380.63,0,1.34,0,2.74-.3,4.03,.33,1.19,1.07,.82,2.49,.82,3.8,.02,25.55,.02,51.11-.02,76.66,0,1.25,.62,2.72-.8,3.72Z"/>
    <path class="cls-11" d="M518.61,324.66c-14.48,.04-28.96,.1-43.44,.1-129.25,.01-258.49,.02-387.74,.02,1.38-1.33,3.12-.74,4.68-.74,140.72-.03,281.45-.03,422.17,0,1.45,0,3.02-.51,4.32,.62Z"/>
    <path class="cls-27" d="M495.5,374.88H71.3v-.4H495.66l-.17,.4Z"/>
    <path class="cls-12" d="M476.06,385.47c-54.39,.01-108.77,.04-163.16,.04-73.38,0-146.76,0-220.14,0-1.77,0-3.55,.07-5.32,.11,1.26-1.59,3.04-.89,4.58-.89,126.45-.03,252.91-.03,379.36,0,1.57,0,3.3-.61,4.68,.74Z"/>
    <path class="cls-27" d="M475,471.16H88.52c0-.13,0-.27,0-.4H475.16c-.05,.13-.11,.27-.16,.4Z"/>
    <path class="cls-27" d="M475,344.14H88.52c0-.13,0-.27,0-.4H475.16c-.06,.13-.11,.27-.16,.4Z"/>
    <path class="cls-9" d="M75.27,468.57v-81.99c.13,0,.26,0,.4,0v82.15c-.13-.05-.26-.11-.4-.16Z"/>
    <path class="cls-9" d="M69.18,356.55v15.98c-.13,0-.27,0-.4,0v-15.94c.13-.01,.27-.02,.4-.04Z"/>
    <path class="cls-9" d="M75.74,325.88v15.88c-.13,0-.26,0-.4,0v-15.97c.13,.03,.26,.06,.4,.09Z"/>
    <path class="cls-6" d="M478.41,124.17c-1.55,2.44-2.79,4.19-3.83,6.05-2.5,4.48-3.35,9.11-.86,13.89,.73,1.4,1.18,2.79,.16,4.18-5.3,7.25-4.59,15.23-2.87,23.3,.79,3.69,1.69,7.35,2.66,11,.52,1.97,0,2.79-2.11,2.55-.94-.1-1.91-.02-2.87-.02-69.55,0-139.1,0-208.65-.03-2.28,0-5.86,1.04-6.56-.59-1.13-2.66-2.27-5.8-1.78-8.96,.25-1.59,.58-3.22,1.22-4.68,2.23-5.12,1.89-10.17-1.03-14.72-4.4-6.85-4.9-13.74-1.78-21.14,.82-1.94,1.37-4.23,1.22-6.29-.28-3.67,.9-4.63,4.67-4.63,72.69,.12,145.39,.09,218.08,.09h4.33Z"/>
    <path class="cls-6" d="M507.4,124.18c-3.53,9.07-5.76,17.86-6.18,27.09-.47,10.36,.98,20.39,4.57,30.09,1.05,2.84,1.19,3.98-2.51,3.84-6.95-.27-13.91-.14-20.87-.04-2.06,.03-3.01-.31-3.38-2.68-.82-5.31-2.24-10.52-3.3-15.79-1.12-5.6-.76-10.97,2.76-15.83,1.69-2.33,2.35-4.97,.74-7.57-2.77-4.47-1.5-8.44,1.09-12.43,1.16-1.78,3.14-3.11,3.33-5.44,.09-1.15,.88-1.23,1.71-1.23,7.18-.01,14.36,0,22.03,0Z"/>
    <path class="cls-6" d="M248.14,185.12c-5.1,0-9.85-.04-14.6,.02-1.75,.02-2.26-.99-2.75-2.39-6.56-18.76-6.4-37.48,.2-56.2,.64-1.82,1.64-2.51,3.59-2.41,2.86,.15,5.74,.17,8.59,0,2.45-.15,3.1,1.05,3.11,3.11,.02,3.3-1.03,6.37-2.18,9.39-2.53,6.63-1.96,13.01,1.67,19.01,2.98,4.94,3.97,9.74,1.59,15.3-1.93,4.49-.81,9.23,.77,14.19Z"/>
    <path class="cls-23" d="M518.69,153.32c0,8.36,0,16.72,0,25.08,0,1.69,.47,3.55-2.19,3.99-2.5,.41-2.64-1.46-3.16-2.85-6.59-17.93-5.99-35.66,1.7-53.16,.48-1.09,.76-2.45,2.43-2.22,1.98,.27,1.18,1.86,1.19,2.87,.07,8.76,.04,17.53,.04,26.29Z"/>
    <path class="cls-2" d="M226.7,192.25c1.59-1.62,3.62-.88,5.44-.88,92.34-.04,184.67-.03,277.01-.04,2.05,0,4.13,.31,6.7-1.14-1.62,2.8-3.62,1.91-5.17,1.91-81.14,.05-162.27,.04-243.41,.05-13.52,0-27.04,.07-40.56,.1,0,0,0,0,0,0Z"/>
    <path class="cls-2" d="M252.51,122.68h224.95c0,.13,0,.27,0,.4H252.34c.06-.13,.11-.27,.17-.4Z"/>
    <path class="cls-6" d="M267.76,264.98c1.82-7.46,1.44-14.91-2.12-21.66-4.7-8.9-4.69-17.43-.26-26.27,1.51-3.02,2.57-6.28,2.58-9.7,0-2.36,1.1-3.07,3.28-2.83,.94,.1,1.91,.02,2.87,.02,69.49,0,138.98,0,208.47,0,1.91,0,3.82-.08,5.73-.13-.09,2.74-2.57,3.22-4.31,4.33-4.75,3.04-5.23,4.2-2.75,9.17,1.67,3.33,1.78,6.52-.28,9.58-2.78,4.15-3.06,8.46-1.63,13.13,.95,3.09,1.38,6.33,1.27,9.59-.15,4.09,.33,7.97,2.3,11.74,1.73,3.3,.95,4.21-2.87,4.21-69.66,0-139.32,.01-208.98-.04-1.1,0-2.85,1.02-3.3-1.14Z"/>
    <path class="cls-6" d="M491.7,204.36c8.04,.06,16.08,.13,24.12,.17,5.11,.03,5.09,0,3.46,4.56-6.2,17.37-6.21,34.76-.19,52.17,.35,1.01,.89,1.94,1.35,2.91,.54,1.14,.15,1.93-1.09,1.94-10.37,.09-20.74,.04-31.1,.05-1.2,0-1.56-.64-1.86-1.68-1.73-6.01-4.38-11.82-3.05-18.37,.34-1.66-.56-3.43-1.02-5.12-1.21-4.47-1.09-8.7,1.46-12.82,2.11-3.4,2.35-7.15,.63-10.85-1.32-2.83-.8-5.15,2.1-6.36,3.11-1.29,4.57-3.55,5.19-6.6Z"/>
    <path class="cls-6" d="M254.1,265.67q-9.41,0-11.84-9.36c-4.18-16.23-3.44-32.27,1.84-48.18,.92-2.76,2.24-3.9,5.25-3.67,3.53,.27,7.1,.18,10.65,.03,2.51-.11,3.11,1.05,2.79,3.18-.53,3.49-1.48,6.87-3.02,10.04-4.27,8.75-4.14,17.26,.42,25.96,3.2,6.12,3.81,12.83,2.83,19.7-.24,1.67-.57,2.41-2.35,2.32-2.18-.11-4.37-.03-6.56-.02Z"/>
    <path class="cls-19" d="M491.7,204.36c2.04,4.34-.88,6-4.19,7.26-2.94,1.12-4.05,2.2-1.93,5.44,2.52,3.84,1.58,8.15-.84,11.82-2.46,3.73-2.7,7.47-1.29,11.53,1.16,3.35,1.45,6.75,.94,10.31-.46,3.19-.58,6.38,2.38,8.9,1.8,1.53,.68,3.78,.29,6.05,10.6,0,21.05,0,31.5,.01,1.11,0,1.85-.28,1.88-1.5,.98,1.08,.93,2.02-.62,2.31-1.19,.22-2.45,.09-3.67,.09-81.48,0-162.95,.01-244.43-.08-1.27,0-3.71,1.59-3.96-1.52,.97,1.12,2.29,.67,3.45,.67,69.87,.02,139.75,.02,209.62,.01,.65,0,1.29-.07,2.83-.17-7.42-8.71-2.5-19.44-6.41-28.58-1.27-2.97-.02-6.15,1.93-8.75,2.77-3.68,3.18-7.19,.14-11.01-2.46-3.09-1.24-5.67,1.6-7.97,2.3-1.87,5.58-2.21,7.38-4.78,1.11-1.27,2.24-1.29,3.39-.04Z"/>
    <path class="cls-6" d="M532.06,233.84c0,8.48,.02,16.96-.02,25.44,0,1.37,.51,2.96-1.79,3.41-2.36,.46-2.76-1.02-3.33-2.57-6.59-17.9-6.09-35.59,1.56-53.08,.51-1.17,.77-2.93,2.61-2.52,1.71,.38,.92,2.02,.92,3.06,.07,8.75,.04,17.5,.04,26.25Z"/>
    <path class="cls-6" d="M39.31,267.23c-8.81-3.65-10.43-7.67-5.64-16,20.9-36.39,37.55-74.81,55.73-112.5,.96-1.99,1.46-3.97,1.45-6.2-.07-11.19-.12-22.38,.03-33.57,.04-2.69-.51-4.16-3.44-4.75-3.08-.62-5.89-2.16-8.21-4.35-2.89-2.74-2.65-4.38,.9-6.04,2.5-1.17,5.17-1.73,7.94-1.73,14.89,0,29.78,.01,44.67,.02,2.92,0,5.69,.67,8.3,1.93,2.76,1.34,3.16,3.12,.93,5.34-2.78,2.77-6.31,4.18-9.98,5.33-.71,.22-1.73,.04-1.84,1.19,.52,13.2,.48,26.39,.02,39.59,2.67,7.33,6.34,14.24,9.67,21.28,13.26,28,26.24,56.14,40.89,83.48,1.97,3.68,4.27,7.19,6.27,10.86,4.55,8.32,3.16,12.3-5.49,16.15-1.06,.93-2.35,.5-3.53,.5-45.05,.02-90.11,.02-135.16,0-1.17,0-2.47,.46-3.51-.53Z"/>
    <path class="cls-8" d="M39.31,267.23c10.52-.05,21.03-.13,31.55-.13,35.25-.02,70.5,0,105.75,0,1.64,0,3.27,.11,4.91,.16,.28,1.88-1.22,.89-1.75,.89-46.26,.06-92.53,.05-138.79,.04-.63,0-1.26-.18-1.89-.29-.03,0-.06-.24-.03-.34,.04-.12,.16-.22,.24-.32Z"/>
    <path class="cls-29" d="M183.46,271.5c-46.3-.03-92.6-.05-138.91-.08-1.48,0-2.96,0-4.72,0,1.13-1.36,2.35-.76,3.36-.76,45.35-.04,90.69-.04,136.04-.02,1.44,0,3.05-.51,4.22,.86,0,0,0,0,0,0Z"/>
    <path class="cls-39" d="M130.18,135.49c0-13.2-.01-26.39-.02-39.59,.84,.71,.73,1.68,.73,2.62,0,11.45,0,22.9,0,34.34,0,.94,.11,1.91-.71,2.63Z"/>
    <path class="cls-30" d="M360.85,424.86c1.45-1.34,2.46-2.44,3.64-3.32,4.62-3.45,10.52-2.7,13.52,1.99,1.27,1.99,1.87,1.74,3.07,.18,1.17-1.52,2.72-2.62,4.52-3.38,6.05-2.55,11.39,.12,12.7,6.48,1.1,5.33,.37,10.74,.48,16.12,.05,2.37,.12,4.37,3.29,4.35,.84,0,1.66,.44,1.53,1.48-.12,1.02-.98,1.17-1.83,1.17-3.82,.01-7.64,.02-11.47,0-.94,0-2.06,.04-2.05-1.34,0-1.03,.82-1.35,1.68-1.35,3.17,.01,3.32-2.03,3.29-4.39-.07-4.31,.04-8.62-.05-12.93-.06-3.07-1.17-5.68-4.54-6.35-3.56-.71-6.18,.9-7.56,4.12-2.44,5.69-1.31,11.67-1.13,17.55,.06,2.02,1.95,1.88,3.42,2.08,.9,.12,1.6,.55,1.41,1.57-.14,.76-.84,1.02-1.55,1.03-4.1,.02-8.19,.02-12.29,.02-.86,0-1.7-.17-1.79-1.2-.09-1.03,.68-1.45,1.56-1.45,3.33,0,3.64-2.15,3.54-4.66-.18-4.7,.37-9.43-.44-14.11-.42-2.44-1.46-4.44-4.11-4.93-2.73-.51-5.13,.16-6.82,2.59-1.61,2.31-2.24,4.9-2.29,7.63-.06,3.1,0,6.2-.04,9.29-.02,2.2,.22,4.12,3.14,4.16,1.07,.01,1.93,.45,1.69,1.71-.2,1.05-1.16,.99-1.96,.99-3.82,.02-7.64,.01-11.47,0-.85,0-1.71-.17-1.81-1.2-.1-1.06,.72-1.43,1.58-1.41,3.23,.07,3.28-2,3.24-4.34-.08-4.58-.02-9.16-.03-13.74,0-2.51,.58-5.14-3.13-6.01-1.49-.35-1.36-1.87,.22-2.59,4.02-1.82,7.8-.13,8.85,4.22Z"/>
    <path class="cls-30" d="M150.66,440.38c0-2.29-.02-4.58,.01-6.87,.01-.77-.12-1.68,1.08-1.81,1.03-.11,1.46,.49,1.76,1.31,.69,1.89,1.2,3.88,2.11,5.67,3.17,6.21,9.18,9.66,15.57,9.12,4.76-.4,8.54-3.69,9.09-7.91,.6-4.58-1.47-7.35-6.93-8.92-3.8-1.09-7.71-1.8-11.5-2.91-9.17-2.69-12.76-9.38-9.6-17.59,2.87-7.44,12.16-10.77,19.91-7.1,.86,.41,1.75,.84,2.44,1.46,1.59,1.42,2.88,1.9,4.02-.47,.54-1.12,1.4-2.16,2.87-1.71,1.7,.51,.94,2.03,.97,3.11,.11,3.91,.1,7.82,.1,11.73,0,.74,.26,1.7-.86,1.96-1.27,.29-1.58-.61-1.94-1.54-.78-2.01-1.44-4.09-2.5-5.96-3.09-5.47-8.16-7.97-13.95-7.14-3.98,.57-7.08,3.68-7.46,7.48-.35,3.55,1.68,6.53,5.79,7.77,4.3,1.29,8.77,2.05,13.07,3.32,8.2,2.42,11.35,7.15,10.3,15-.91,6.84-6.82,11.75-14.29,12.01-4.06,.14-8.01-.27-11.31-2.73-2.08-1.55-3.46-1.57-4.89,.64-.67,1.03-1.63,1.99-3.05,1.41-1.36-.55-.78-1.86-.82-2.86-.08-2.15-.02-4.31-.02-6.47Z"/>
    <path class="cls-30" d="M214.88,442.27c2.3-5.4,4.22-9.99,6.22-14.55,1.09-2.47,.74-4.19-2.18-4.81-.96-.2-2-.34-1.8-1.65,.21-1.38,1.42-1,2.28-1.01,2.86-.05,5.73-.03,8.59,0,.78,0,1.73-.1,1.89,1.01,.15,.99-.47,1.46-1.37,1.66-2.79,.62-3.72,2.88-4.72,5.13-3.94,8.87-7.82,17.76-11.94,26.55-2.13,4.54-5.49,7.77-11.13,7.27-3.11-.28-4.69-2.01-4.35-5.14,.19-1.73,1.31-2.59,3.08-2.58,1.54,0,2.8,.54,2.83,2.23,.06,3.77,2.15,2.29,3.71,1.34,4.29-2.59,6.05-8.71,3.93-13.08-2.7-5.58-5.4-11.17-8.08-16.76-.99-2.06-1.71-4.32-4.34-5-.96-.25-1.29-.92-1.04-1.84,.23-.85,1-.78,1.66-.79,3.68-.02,7.37-.02,11.05,0,.8,0,1.75-.05,1.82,1.08,.07,1.04-.68,1.37-1.58,1.4-3.75,.12-2.98,2.03-1.86,4.29,2.39,4.82,4.66,9.69,7.33,15.26Z"/>
    <path class="cls-40" d="M316.2,435.68c-.02,4.71,.98,8.95,5.93,10.97,4.3,1.75,8.41,.23,12.5-4.38,.7-.79,1.23-2.06,2.53-.95,1.08,.92,0,1.71-.44,2.44-4.64,7.67-15.83,9.11-22.36,2.91-5.26-5-6.24-14.08-2.23-20.55,3.47-5.59,10.01-7.97,16.34-5.95,5.96,1.9,9.28,7.35,8.95,14.67-5.47,.92-10.99,.15-16.48,.43-1.58,.08-3.23-.43-4.75,.41Z"/>
    <path class="cls-30" d="M262.94,426.18c.04,.67,.13,1.35,.11,2.02-.04,.98,.68,2.36-.91,2.67-1.5,.3-1.56-1.16-2.01-2.07-2.73-5.51-6.64-7.72-11.24-6.38-2.11,.62-3.8,1.76-3.99,4.07-.21,2.5,1.64,3.62,3.7,4.15,2.9,.74,5.87,1.19,8.8,1.83,5.01,1.08,7.53,3.73,7.76,8.05,.21,3.98-2.47,7.86-6.59,9.25-2.91,.98-5.91,.94-8.85,.04-2.22-.68-4.28-3.33-6.71-.15-.53,.69-1.53-.02-1.61-1.03-.23-2.95-.42-5.9-.6-8.86-.04-.68,.08-1.37,.98-1.46,.76-.08,1.27,.25,1.63,.94,.81,1.55,1.53,3.17,2.54,4.6,2.69,3.82,7.94,5.19,12.01,3.29,2.03-.95,3.33-2.45,3.18-4.72-.14-2.16-1.63-3.32-3.68-3.78-2.79-.62-5.62-1.09-8.38-1.82-6.37-1.67-8.97-5.53-7.41-10.81,1.46-4.92,7.57-7.74,13.04-6.07,2.09,.64,3.99,3.12,6.5,.5,.58-.6,1.39,.39,1.46,1.31,.11,1.48,.19,2.96,.29,4.43,0,0-.02,0-.02,0Z"/>
    <path class="cls-30" d="M281.5,434.68c0-2.16-.06-4.31,.01-6.47,.09-2.77,.47-5.64-3.93-4.92-.69,.11-1.34-.23-1.45-1.07-.1-.77,.27-1.34,.97-1.58,5.42-1.81,6.72-6.22,7.28-11.12,.1-.92,.08-2.09,1.45-1.98,1.4,.11,1.07,1.35,1.08,2.21,.05,2.56,.12,5.12-.01,7.68-.11,2.06,.56,2.99,2.77,2.81,1.76-.15,3.55-.03,5.32-.01,.85,.01,1.65,.12,1.7,1.25,.05,1.12-.39,1.8-1.61,1.83-.41,.01-.82,0-1.23,.03q-6.92,.34-6.92,7.16c0,3.77-.07,7.55,.03,11.32,.07,2.54,.61,5.03,3.83,5.28,3,.23,4.15-1.84,5.19-4.26,.55-1.29-.38-4.28,1.88-3.66,2.48,.68,.69,3.25,.25,4.8-1.4,4.97-5.41,7.19-10.77,6.31-3.99-.66-5.81-3.24-5.84-8.34-.02-2.42,0-4.85,0-7.28Z"/>
    <path class="cls-13" d="M316.2,435.68c1.87-1.65,4.13-.76,6.19-.81,5.01-.14,10.02-.04,15.03-.03-3.61,1.59-7.39,.4-11.08,.66-3.37,.24-6.76,.14-10.14,.19Z"/>
    <path class="cls-16" d="M382.64,161.05c0,7.02-4.61,11.82-11.25,11.75-6.02-.07-10.5-4.97-10.61-11.59-.12-6.88,4.67-12.05,11.08-11.97,6.31,.08,10.79,4.99,10.78,11.81Z"/>
    <path class="cls-3" d="M278.5,171.11c5.96-.32,5.91-4.25,5.68-8.69-.28-5.37-.07-10.76-.07-16.13q0-6.46-5.64-8.6h16.23c-.03,.23-.07,.69-.1,.69-5.36-.04-5.59,3.28-5.43,7.4,.27,6.71,.07,13.45,.07,20.17,0,1.47-.17,2.97,.77,4.28-3.67,2.46-7.64,1.09-11.52,.88Z"/>
    <path class="cls-28" d="M322.31,170.26c1.41-4.75,.8-9.58,.34-14.36-.19-2.03-1.78-3.26-3.95-3.48-2.75-.28-4.9,.78-6.05,3.2-2,4.2-1.19,8.69-.96,13.08,.11,2.17,2.85,1.02,3.99,3.06-4.28,.77-8.18,.33-12.08-.03,7.16-4.08,2.41-10.6,3.7-15.69,.8-3.14-1.99-3.52-4.24-4.2,3.84-3.18,7.57-2.43,8.72,1.47,6.44-5.61,11.29-5.64,14.33-.1-1.87,4.21-1.15,8.67-1.41,13.05-.09,1.58,.63,3.99-2.4,3.99Z"/>
    <path class="cls-34" d="M346.56,169.5c.26,.27,.53,.53,.79,.8,1.46,1.06,3.33-.2,4.8,.82-1.88,2.3-4.41,.71-6.62,.99-2.21,.29-4.5,.06-7.59,.06,1.92-1.19,3.13-1.95,4.35-2.7,1.29-5.55,.23-11.17,.54-16.74,.15-2.69-3.51-.21-3.65-2.56,.98-.05,1.95-.1,2.93-.15,1.75-1.72,.05-4.04,1.05-5.89,.04-2.9,1.52-4.9,4.02-6.25,.9-.38,1.72-.6,1.79,.8-1.41,1.03-2.58,2.19-2.43,4.11-.48,2.44-1.21,4.9,.43,7.22,1.74,.23,3.75-1.09,5.19,.87-1.74,1.08-3.91-.37-5.61,.92l.1-.09c-.94,5.92-.78,11.85-.1,17.79Z"/>
    <path class="cls-32" d="M322.31,170.26c2.71-3.31,.91-7.16,1.17-10.73,.19-2.54,.41-4.75,2.64-6.31,0,0-.02,.02-.02,.02,.75,3.85,.1,7.74,.35,11.6,.08,1.29-.47,2.68,.48,3.88,.11,2.29,2.07,2.3,3.62,3.15h-11.72c1.33-1.12,2.95-.34,3.48-1.59Z"/>
    <path class="cls-16" d="M348.98,138.68c-.41-.67-1.1-.74-1.79-.8,2.24-1.78,4.67-1.82,7.23-.78,1.34,.54,2.29,1.45,2.63,2.84,.35,1.4,.12,2.69-1.27,3.48-.89,.5-1.87,.46-2.69-.14-1.99-1.46,.03-2.83,.22-4.21-1.4-1.18-2.92-.17-4.34-.39Z"/>
    <path class="cls-16" d="M339.18,150.16c3.74,.44,4.59,2.71,4.1,6.04-.64,4.39,1.09,8.97-.99,13.27,.06-5.09-.17-10.21,.29-15.27,.33-3.61-2.91-1.8-3.93-3.16-.06-.08-.06-.29,0-.38,.15-.19,.35-.33,.53-.5Z"/>
    <path class="cls-16" d="M346.56,169.5c-1.34-5.94-1.52-11.87,.09-17.79-.03,5.93-.06,11.86-.09,17.79Z"/>
    <path class="cls-44" d="M278.5,171.11c3.83-.38,7.79,.86,11.52-.88,0,0-.04-.01-.04-.01,1.42,1.23,3.34-.16,4.79,.89-3.53,2.33-7.46,.68-11.19,.95-1.61,.12-3.77,1.22-5.07-.95Z"/>
    <path class="cls-28" d="M326.93,168.71c-1.96-5.07-.44-10.32-.83-15.47,2.03,5.07,.72,10.31,.83,15.47Z"/>
    <path class="cls-16" d="M346.97,150.02c-2.25-2.29-1.54-4.74-.43-7.22,.34,2.4-.38,4.85,.43,7.22Z"/>
    <path class="cls-16" d="M343.16,144.13c-.29,1.97,1.15,4.25-1.05,5.89,.88-1.87-.25-4.09,1.05-5.89Z"/>
    <path class="cls-16" d="M346.56,151.81c1.62-1.77,3.75-.56,5.61-.92-1.63,1.74-3.8,.27-5.61,.92Z"/>
    <path class="cls-3" d="M294.76,171.11c-1.6-.29-3.44,.72-4.79-.89,1.55,.51,3.43-.64,4.79,.89Z"/>
    <path class="cls-16" d="M352.15,171.12c-1.6-.26-3.41,.65-4.8-.82,1.59,.36,3.42-.71,4.8,.82Z"/>
    <path class="cls-16" d="M280.17,251.33c1.82-.1,2.47-1.89,3.87-2.6,1.21-1.41,.58-3.08,.55-4.61-.14-7.89,.51-15.79-.34-23.67-1.37-.92-3.31,.15-4.59-1.25,5.01-2.96,10.5-1.28,12.23,3.68,2.47,7.09,4.96,14.17,7.81,22.31,2.59-7.95,5.17-14.86,7.01-21.95,1.09-4.19,2.99-5.95,7.29-5.16,1.75,.32,3.69-.48,5.36,.55-.41,1.68-1.55,1.29-2.4,1.34-1.91,.1-2.55,1.08-2.54,2.88,.05,8.36,.16,16.72-.05,25.08-.1,3.8,3.42,2.45,5.22,3.53-.1,.41-.2,.82-.29,1.24-4.5,0-9.01,.01-13.51-.01-.62,0-1.02-.43-.89-1.06,.12-.61,.68-.84,1.24-.78,3.88,.41,3.58-2.15,3.57-4.69-.05-7.77-.02-15.53-.74-23.44-2.73,8.39-5.42,16.79-8.2,25.17-.53,1.61-.44,4.39-2.06,4.46-2.23,.1-1.98-2.78-2.56-4.4-3.01-8.51-5.85-17.08-8.75-25.63-.62-.33-1.08-.09-1.08,.55,.09,8.37-.55,16.74,.31,25.1,.19,2.97,3.58,2.24,4.79,4.03-3.79,.3-7.62,1.47-11.26-.66Z"/>
    <path class="cls-28" d="M419.29,252.1c-3.23-2.28-2.77-4.83-.58-7.53,.56-.69,2.29-.96,.84-2.4-2.98-2.95-3.18-6.15-.47-9.31,2.51-2.92,6.58-3.35,10.81-1.41,.11,.05,.19,.19,.28,.29,1.13,.52,2.3,1,2.46,2.47,2.59,5.15-.13,9.89-6.07,10.52-1.62,.17-3.27,.02-4.88,.22-1.12,.14-2.1,.78-2.05,2.09,.05,1.36,1.08,1.78,2.25,1.81,2.31,.06,4.64-.12,6.93,.09,2.88,.27,5.86,.76,6.55,4.28,.62,3.14-.61,5.48-3.58,6.86-.85,.59-1.48,.44-1.87-.53,2.1-4.48,1.86-4.85-3.12-4.95-1.63-.03-3.27,.13-4.88-.31-1.29-.25-1.55-1.7-2.62-2.2Z"/>
    <path class="cls-4" d="M347.99,251.56c-3.48,3.1-5.65,1.28-7.49-1.73-2.03,1.92-4.07,3.55-6.85,3.53-2.72-.02-5.22-.67-6.31-3.53-1.08-2.83,.16-5.02,2.34-6.74,2.4-1.89,5.26-2.9,8.26-3.28,2.73-.34,2.96-2,2.53-4.04-.63-2.91-2.78-3.93-5.52-3.59-2.01,.25-3.86,.9-2.39,3.67,.55,1.03,.1,2.11-1.06,2.71-.83,.44-1.6,.26-2.28-.27-1.07-.83-1.38-1.92-1.03-3.23,.77-2.94,5.23-5.23,9.49-4.84,3.93,.36,6.3,2.45,6.42,6,.14,3.77,.06,7.54,.03,11.32-.02,2.49,.47,4.43,3.85,4.02Z"/>
    <path class="cls-4" d="M409.46,251.12c-4.32,3.03-5.07,2.86-8.38-1.15-1.92,1.72-3.92,3.4-6.69,3.39-2.71-.01-5.22-.63-6.34-3.48-1.11-2.82,.11-5.02,2.28-6.75,2.39-1.91,5.24-2.93,8.24-3.31,2.69-.34,3.04-1.92,2.61-3.99-.61-2.9-2.73-3.98-5.47-3.64-1.92,.24-3.99,.75-2.46,3.6,.54,1.02,.17,2.11-.99,2.75-.83,.46-1.6,.26-2.29-.24-1.12-.79-1.42-1.88-1.09-3.2,.73-2.95,5.17-5.25,9.46-4.88,3.94,.34,6.32,2.42,6.46,5.95,.14,3.5,.03,7,.04,10.51,0,2.56-.4,5.42,4.63,4.44Z"/>
    <path class="cls-43" d="M462.47,246.5c-1.68,6.78-9.36,9.08-14.47,4.42-4.98-4.54-4.86-14.16,.28-18.52,2.86-2.42,6.07-2.94,9.48-1.18,2.89,1.5,5.43,6.54,5.19,9.57-.13,1.65-1.13,1.56-2.22,1.57-3.27,.01-6.55,.09-9.82-.02-2-.07-2.67,.52-2.27,2.57,.55,2.79,1.36,5.33,4.44,6.17,3.15,.86,5.57-.38,7.38-2.98,.48-.69,.72-1.78,2.01-1.59Z"/>
    <path class="cls-4" d="M364.67,232.97c2.05-2.54,4.45-3.31,7.26-2.36,2.64,.89,3.86,3.04,4.05,5.57,.26,3.48,.13,6.99,.2,10.49,.04,1.83-.48,3.99,2.48,4.17,.55,.03,1.05,.37,.91,1.06-.13,.62-.62,.86-1.2,.83-3.05-.14-6.16,.42-10.6-.7,4.85-1.35,5.18-4.08,4.88-7.23-.29-3.06,.49-6.23-.67-9.21-1.33-3.4-4.11-3.36-7.32-2.64Z"/>
    <path class="cls-15" d="M354.72,232.48c2.35-1.82,5.25-2.22,6.66-1.03,1.32,1.12,2.74,3.43,1.57,6.21-1.36,3.25-.51,6.93-.57,10.42-.02,1.28,.33,2.44,1.91,2.66,.81,.11,1.81,.15,1.56,1.3-.17,.77-1.04,.71-1.72,.71-2.32,0-4.64,0-6.97-.02-.66,0-1.48,.03-1.6-.84-.11-.86,.61-1.07,1.31-1.2,.84-.15,1.78-.45,1.79-1.37,.07-4.71,.12-9.42-.04-14.13-.06-1.87-2.28-1.55-3.9-2.72Z"/>
    <path class="cls-1" d="M430.18,259.4c.54,.23,1.07,.47,1.61,.7-3.57,2.3-7.44,2.1-11.26,1-4.61-1.33-5.29-4.22-1.81-7.38,.65-.59,.66-.99,.57-1.62,1.41-.32,1.84,1.05,2.76,1.57-1.18,4.03-.06,5.37,4.36,5.24,1.28-.04,2.66-.81,3.76,.49Z"/>
    <path class="cls-26" d="M286.64,247.97c-1.38-1.35-.76-3.06-.77-4.61-.07-6.87-.04-13.75,0-20.62,0-.71-.27-1.8,.97-1.75,.64,.03,.54,.81,.57,1.33-1.35,1-.77,2.45-.78,3.69-.04,7.32,0,14.64,.01,21.96Z"/>
    <path class="cls-26" d="M284.26,220.46c1.15,.91,.8,2.2,.81,3.36,.03,7.1,.04,14.19,0,21.29,0,1.26,.5,2.74-1.01,3.63,.76-9.42,.4-18.85,.21-28.27Z"/>
    <path class="cls-10" d="M432.64,234.22c-.82-.82-1.64-1.65-2.46-2.47,1.35,.3,2.28-.63,3.36-1.13,1.38-.64,2.64-.59,3.64,.66,.54,.67,.68,1.54,.22,2.26-.93,1.47-2.03,.7-3.14,.14-.63-.32-1.31-.3-1.62,.54Z"/>
    <path class="cls-26" d="M280.17,251.33c3.68,1.51,7.52,.3,11.26,.66-3.77,1.63-7.64,.71-11.49,.46-.11,0-.29-.44-.26-.65,.03-.18,.31-.31,.49-.47Z"/>
    <path class="cls-17" d="M97.27,251.9c-3.47,.49-2.08-2.2-2.08-3.5-.09-20.03-.06-40.05-.07-60.08,0-8.87-.05-17.74,.05-26.61,.01-1.2-1.1-3.78,2.14-2.85,.86,8.04,.28,16.09,.32,24.14,.1,21.78,.05,43.56,.02,65.35,0,1.19,.31,2.43-.38,3.55Z"/>
    <path class="cls-18" d="M97.27,251.9c.01-31.01,.03-62.02,.04-93.03,.26,5.46,1.99,9.24,8.86,6.44-.4,2.39-1.6,1.79-2.35,1.82-5.78,.23-5.79,.2-5.78,6.07,0,3.88,.05,7.75,.08,11.63,.29,.2,.38,.39,.27,.57-.1,.18-.21,.26-.31,.26-.01,5.37-.05,10.75-.03,16.12,0,1.16-.38,2.46,.87,3.33l.26,.31-.25,.31c-1.98,5.09-.41,10.35-.82,15.52,.29,.19,.39,.38,.29,.57-.1,.19-.19,.28-.29,.28-.02,5.18-.07,10.35-.04,15.53,0,1.12-.46,2.44,.86,3.25,.17,.14,.22,.29,.16,.43-.06,.14-.12,.21-.17,.21-1.69,1.81-.49,4.03-.88,6.02-.28,1.45,.75,3.12-.76,4.36Z"/>
    <path class="cls-33" d="M98.91,241.52c.02-.21,.02-.42,.01-.63,2.37,0,4.74,0,7.11,0-2.27,1.55-4.67,1.45-7.12,.63Z"/>
    <path class="cls-24" d="M98.92,205.73c.01-.21,.01-.41,0-.62,2.33-.97,4.66-.55,7.02,.27-2.29,.71-4.64,.73-7.02,.34Z"/>
    <path class="cls-21" d="M98.08,185.66c.01-.28,.02-.55,.04-.83,1.17,.08,2.39-.41,4.1,.59-1.74,.1-2.94,.17-4.14,.24Z"/>
    <path class="cls-14" d="M98.1,222.1c0-.28,0-.57,0-.85,1.18,0,2.37,0,4.41,0-1.93,1.25-3.22,.72-4.41,.85Z"/>
    <path class="cls-22" d="M316.19,432.49c-.12-2.92,.57-5.62,2.53-7.85,2.57-2.92,6.48-3.33,9.52-1.09,3.14,2.31,3.84,5.67,1.89,9.05-4.65,.32-9.29,.49-13.94-.11Z"/>
    <path class="cls-13" d="M316.19,432.49c4.65,.04,9.29,.07,13.94,.11-4.65,1.03-9.3,1.33-13.94-.11Z"/>
    <path class="cls-23" d="M378.13,161.5c-.28,1.58-.44,3.47-.99,5.25-.78,2.51-2.58,4.17-5.34,4.23-2.79,.06-4.59-1.63-5.46-4.08-1.35-3.77-1.38-7.65-.13-11.46,.87-2.65,2.71-4.46,5.67-4.37,3.12,.1,4.95,2.09,5.64,4.95,.41,1.68,.4,3.45,.61,5.48Z"/>
    <path class="cls-37" d="M430.06,237.68c-.26,2.88-1.35,5.3-4.5,5.23-3.39-.07-4.4-2.67-4.38-5.62,.02-2.88,1.27-5.19,4.41-5.14,3.4,.06,4.29,2.7,4.47,5.53Z"/>
    <path class="cls-37" d="M430.18,259.4c-2.14,.18-4.25,.95-6.42,.39-1.54-.4-3.34-.55-3.98-2.34-.73-2.05,1.16-2.72,2.27-3.77,2.13-.1,4.26-.29,6.39-.26,1.73,.02,3.66,.12,4.34,2.11,.76,2.24-1.31,2.86-2.61,3.87Z"/>
    <path class="cls-45" d="M340.59,243.73c-.07,4.35-2.78,7.64-6.03,7.59-2.43-.04-3.37-1.51-3.43-3.64-.1-3.15,4.08-6.31,7.83-6.23,2.06,.05,1.49,1.43,1.63,2.27Z"/>
    <path class="cls-45" d="M401.28,243.95c-.06,4.1-2.76,7.4-6.01,7.37-2.42-.03-3.38-1.48-3.45-3.62-.11-3.15,4.03-6.3,7.81-6.24,2.07,.03,1.54,1.39,1.65,2.49Z"/>
    <path class="cls-37" d="M453.26,240.71c-1.33-1.06-4.27,1.65-4.68-1.76-.41-3.36,2.69-7.15,5.46-6.81,3.2,.39,4.62,2.69,4.72,5.63,.14,4.2-3.27,2.37-5.49,2.94Z"/>
  </g>
  <rect class="cls-6" width="45.73" height="101.85"/>
  <rect class="cls-6" x="502.9" y="12.29" width="74.34" height="84.88"/>
</svg>